


 
http://www.imdb.com/title/tt2193418/


Action epic sees a passionate young man transform into a brutal warrior as he travels the unforgiving landscape in search of his long lost brother Hakan The Ferrocious, whose people are relying on him to restore order to their kingdom. 



Director:
 Farren Blackburn 

Writer:
 Matthew Read 

Stars:
 Charlie Bewley, Clive Standen, James Cosmo

Genres:
  Action 

Country:
 UK 

Language:
 English 



Format                                   : AVI
Format/Info                              : Audio Video Interleave
File size                                : 723 MiB
Duration                                 : 1h 38mn
Overall bit rate                         : 1 022 Kbps
Writing application                      : VirtualDubMod 1.5.10.2 (build 2542/release)
Writing library                          : VirtualDubMod build 2542/release

Video
ID                                       : 0
Format                                   : MPEG-4 Visual
Format profile                           : Advanced Simple@L5
Format settings, BVOP                    : 2
Format settings, QPel                    : No
Format settings, GMC                     : No warppoints
Format settings, Matrix                  : Default (H.263)
Codec ID                                 : XVID
Codec ID/Hint                            : XviD
Duration                                 : 1h 38mn
Bit rate                                 : 885 Kbps
Width                                    : 640 pixels
Height                                   : 272 pixels
Display aspect ratio                     : 2.35:1
Frame rate                               : 23.976 fps
Color space                              : YUV
Chroma subsampling                       : 4:2:0
Bit depth                                : 8 bits
Scan type                                : Progressive
Compression mode                         : Lossy
Bits/(Pixel*Frame)                       : 0.212
Stream size                              : 626 MiB (87%)
Writing library                          : XviD 1.2.1 (UTC 2008-12-04)

Audio
ID                                       : 1
Format                                   : MPEG Audio
Format version                           : Version 1
Format profile                           : Layer 3
Mode                                     : Joint stereo
Mode extension                           : MS Stereo
Codec ID                                 : 55
Codec ID/Hint                            : MP3
Duration                                 : 1h 38mn
Bit rate mode                            : Constant
Bit rate                                 : 128 Kbps
Channel(s)                               : 2 channels
Sampling rate                            : 44.1 KHz
Compression mode                         : Lossy
Stream size                              : 90.6 MiB (13%)
Alignment                                : Split accross interleaves
Interleave, duration                     : 42 ms (1.00 video frame)
Interleave, preload duration             : 500 ms
Writing library                          : LAME3.98.2




    	http://addpix.net/viewer.php?file=73833720345645900951.jpg
    	http://addpix.net/viewer.php?file=40111241761762610229.jpg
    	http://addpix.net/viewer.php?file=17574879705641146838.jpg
    	http://addpix.net/viewer.php?file=38640948000061349218.jpg
    	http://addpix.net/viewer.php?file=52394292954836028291.jpg